<?xml version="1.0" encoding="UTF-8" standalone="no"?>
<!DOCTYPE svg PUBLIC "-//W3C//DTD SVG 1.1//EN"
 "http://www.w3.org/Graphics/SVG/1.1/DTD/svg11.dtd">
<!-- Generated by graphviz version 2.47.0 (20210316.0004)
 -->
<!-- Title: dependencies Pages: 1 -->
<svg width="504pt" height="211pt"
 viewBox="0.00 0.00 504.00 211.00" xmlns="http://www.w3.org/2000/svg" xmlns:xlink="http://www.w3.org/1999/xlink">
<g id="graph0" class="graph" transform="scale(1 1) rotate(0) translate(4 207)">
<title>dependencies</title>
<polygon fill="white" stroke="transparent" points="-4,4 -4,-207 500,-207 500,4 -4,4"/>
<text text-anchor="start" x="227.01" y="-42.4" font-family="Times-12" font-weight="bold" font-size="14.00">Legend</text>
<polygon fill="#ffffb3" stroke="transparent" points="14,-10 14,-30 34,-30 34,-10 14,-10"/>
<text text-anchor="start" x="37.63" y="-15.4" font-family="Times-12" font-size="14.00"> &#160;Declarations</text>
<polygon fill="#8dd3c7" stroke="transparent" points="127,-10 127,-30 147,-30 147,-10 127,-10"/>
<text text-anchor="start" x="150.73" y="-15.4" font-family="Times-12" font-size="14.00"> &#160;Module</text>
<polygon fill="#80b1d3" stroke="transparent" points="213,-10 213,-30 233,-30 233,-10 213,-10"/>
<text text-anchor="start" x="236.78" y="-15.4" font-family="Times-12" font-size="14.00"> &#160;Bootstrap</text>
<polygon fill="#fdb462" stroke="transparent" points="310,-10 310,-30 330,-30 330,-10 310,-10"/>
<text text-anchor="start" x="333.67" y="-15.4" font-family="Times-12" font-size="14.00"> &#160;Providers</text>
<polygon fill="#fb8072" stroke="transparent" points="406,-10 406,-30 426,-30 426,-10 406,-10"/>
<text text-anchor="start" x="429.73" y="-15.4" font-family="Times-12" font-size="14.00"> &#160;Exports</text>
<g id="clust1" class="cluster">
<title>cluster_KnowledgeModule</title>
<polygon fill="none" stroke="black" stroke-dasharray="1,5" points="22.5,-70 22.5,-195 473.5,-195 473.5,-70 22.5,-70"/>
</g>
<g id="clust6" class="cluster">
<title>cluster_KnowledgeModule_providers</title>
<polygon fill="none" stroke="black" points="30.5,-78 30.5,-130 465.5,-130 465.5,-78 30.5,-78"/>
</g>
<!-- KnowledgeManageService -->
<g id="node1" class="node">
<title>KnowledgeManageService</title>
<ellipse fill="#fdb462" stroke="black" cx="341.5" cy="-104" rx="115.71" ry="18"/>
<text text-anchor="middle" x="341.5" y="-99.8" font-family="Times,serif" font-size="14.00">KnowledgeManageService</text>
</g>
<!-- KnowledgeModule -->
<g id="node3" class="node">
<title>KnowledgeModule</title>
<polygon fill="#8dd3c7" stroke="black" points="294.58,-187 291.58,-191 270.58,-191 267.58,-187 170.42,-187 170.42,-151 294.58,-151 294.58,-187"/>
<text text-anchor="middle" x="232.5" y="-164.8" font-family="Times,serif" font-size="14.00">KnowledgeModule</text>
</g>
<!-- KnowledgeManageService&#45;&gt;KnowledgeModule -->
<g id="edge1" class="edge">
<title>KnowledgeManageService&#45;&gt;KnowledgeModule</title>
<path fill="none" stroke="black" d="M260.22,-116.84C260.22,-116.84 260.22,-140.52 260.22,-140.52"/>
<polygon fill="black" stroke="black" points="256.72,-140.52 260.22,-150.52 263.72,-140.52 256.72,-140.52"/>
</g>
<!-- KnowledgeService -->
<g id="node2" class="node">
<title>KnowledgeService</title>
<ellipse fill="#fdb462" stroke="black" cx="123.5" cy="-104" rx="84.51" ry="18"/>
<text text-anchor="middle" x="123.5" y="-99.8" font-family="Times,serif" font-size="14.00">KnowledgeService</text>
</g>
<!-- KnowledgeService&#45;&gt;KnowledgeModule -->
<g id="edge2" class="edge">
<title>KnowledgeService&#45;&gt;KnowledgeModule</title>
<path fill="none" stroke="black" d="M189.23,-115.32C189.23,-115.32 189.23,-140.94 189.23,-140.94"/>
<polygon fill="black" stroke="black" points="185.73,-140.94 189.23,-150.94 192.73,-140.94 185.73,-140.94"/>
</g>
</g>
</svg>
