<?xml version="1.0" encoding="UTF-8" standalone="no"?>
<!DOCTYPE svg PUBLIC "-//W3C//DTD SVG 1.1//EN"
 "http://www.w3.org/Graphics/SVG/1.1/DTD/svg11.dtd">
<!-- Generated by graphviz version 2.47.0 (20210316.0004)
 -->
<!-- Title: dependencies Pages: 1 -->
<svg width="3955pt" height="371pt"
 viewBox="0.00 0.00 3955.00 371.00" xmlns="http://www.w3.org/2000/svg" xmlns:xlink="http://www.w3.org/1999/xlink">
<g id="graph0" class="graph" transform="scale(1 1) rotate(0) translate(4 367)">
<title>dependencies</title>
<polygon fill="white" stroke="transparent" points="-4,4 -4,-367 3951,-367 3951,4 -4,4"/>
<text text-anchor="start" x="1952.51" y="-42.4" font-family="Times-12" font-weight="bold" font-size="14.00">Legend</text>
<polygon fill="#ffffb3" stroke="transparent" points="1739.5,-10 1739.5,-30 1759.5,-30 1759.5,-10 1739.5,-10"/>
<text text-anchor="start" x="1763.13" y="-15.4" font-family="Times-12" font-size="14.00"> &#160;Declarations</text>
<polygon fill="#8dd3c7" stroke="transparent" points="1852.5,-10 1852.5,-30 1872.5,-30 1872.5,-10 1852.5,-10"/>
<text text-anchor="start" x="1876.23" y="-15.4" font-family="Times-12" font-size="14.00"> &#160;Module</text>
<polygon fill="#80b1d3" stroke="transparent" points="1938.5,-10 1938.5,-30 1958.5,-30 1958.5,-10 1938.5,-10"/>
<text text-anchor="start" x="1962.28" y="-15.4" font-family="Times-12" font-size="14.00"> &#160;Bootstrap</text>
<polygon fill="#fdb462" stroke="transparent" points="2035.5,-10 2035.5,-30 2055.5,-30 2055.5,-10 2035.5,-10"/>
<text text-anchor="start" x="2059.17" y="-15.4" font-family="Times-12" font-size="14.00"> &#160;Providers</text>
<polygon fill="#fb8072" stroke="transparent" points="2131.5,-10 2131.5,-30 2151.5,-30 2151.5,-10 2131.5,-10"/>
<text text-anchor="start" x="2155.23" y="-15.4" font-family="Times-12" font-size="14.00"> &#160;Exports</text>
<g id="clust1" class="cluster">
<title>cluster_AiModelModule</title>
<polygon fill="none" stroke="black" stroke-dasharray="1,5" points="8,-146 8,-282 190,-282 190,-146 8,-146"/>
</g>
<g id="clust6" class="cluster">
<title>cluster_AiModelModule_providers</title>
<polygon fill="none" stroke="black" points="16,-154 16,-206 182,-206 182,-154 16,-154"/>
</g>
<g id="clust7" class="cluster">
<title>cluster_AiServiceModule</title>
<polygon fill="none" stroke="black" stroke-dasharray="1,5" points="3571,-146 3571,-282 3939,-282 3939,-146 3571,-146"/>
</g>
<g id="clust12" class="cluster">
<title>cluster_AiServiceModule_providers</title>
<polygon fill="none" stroke="black" points="3579,-154 3579,-206 3931,-206 3931,-154 3579,-154"/>
</g>
<g id="clust13" class="cluster">
<title>cluster_AppModule</title>
<polygon fill="none" stroke="black" stroke-dasharray="1,5" points="748,-146 748,-355 2415,-355 2415,-146 748,-146"/>
</g>
<g id="clust15" class="cluster">
<title>cluster_AppModule_imports</title>
<polygon fill="none" stroke="black" points="1379,-154 1379,-347 2407,-347 2407,-154 1379,-154"/>
</g>
<g id="clust18" class="cluster">
<title>cluster_AppModule_providers</title>
<polygon fill="none" stroke="black" points="908,-230 908,-282 1371,-282 1371,-230 908,-230"/>
</g>
<g id="clust19" class="cluster">
<title>cluster_AuthModule</title>
<polygon fill="none" stroke="black" stroke-dasharray="1,5" points="2273,-70 2273,-138 2683,-138 2683,-70 2273,-70"/>
</g>
<g id="clust21" class="cluster">
<title>cluster_AuthModule_imports</title>
<polygon fill="none" stroke="black" points="2555,-78 2555,-130 2675,-130 2675,-78 2555,-78"/>
</g>
<g id="clust24" class="cluster">
<title>cluster_AuthModule_providers</title>
<polygon fill="none" stroke="black" points="2281,-78 2281,-130 2547,-130 2547,-78 2281,-78"/>
</g>
<g id="clust31" class="cluster">
<title>cluster_DatasetModule</title>
<polygon fill="none" stroke="black" stroke-dasharray="1,5" points="1403,-70 1403,-138 1573,-138 1573,-70 1403,-70"/>
</g>
<g id="clust36" class="cluster">
<title>cluster_DatasetModule_providers</title>
<polygon fill="none" stroke="black" points="1411,-78 1411,-130 1565,-130 1565,-78 1411,-78"/>
</g>
<g id="clust37" class="cluster">
<title>cluster_DiagnosisModule</title>
<polygon fill="none" stroke="black" stroke-dasharray="1,5" points="3211,-146 3211,-214 3563,-214 3563,-146 3211,-146"/>
</g>
<g id="clust39" class="cluster">
<title>cluster_DiagnosisModule_imports</title>
<polygon fill="none" stroke="black" points="3401,-154 3401,-206 3555,-206 3555,-154 3401,-154"/>
</g>
<g id="clust42" class="cluster">
<title>cluster_DiagnosisModule_providers</title>
<polygon fill="none" stroke="black" points="3219,-154 3219,-206 3393,-206 3393,-154 3219,-154"/>
</g>
<g id="clust43" class="cluster">
<title>cluster_FileModule</title>
<polygon fill="none" stroke="black" stroke-dasharray="1,5" points="2691,-146 2691,-214 3203,-214 3203,-146 2691,-146"/>
</g>
<g id="clust46" class="cluster">
<title>cluster_FileModule_exports</title>
<polygon fill="none" stroke="black" points="3039,-154 3039,-206 3195,-206 3195,-154 3039,-154"/>
</g>
<g id="clust48" class="cluster">
<title>cluster_FileModule_providers</title>
<polygon fill="none" stroke="black" points="2699,-154 2699,-206 3031,-206 3031,-154 2699,-154"/>
</g>
<g id="clust55" class="cluster">
<title>cluster_KnowledgeModule</title>
<polygon fill="none" stroke="black" stroke-dasharray="1,5" points="1581,-70 1581,-138 1783,-138 1783,-70 1581,-70"/>
</g>
<g id="clust60" class="cluster">
<title>cluster_KnowledgeModule_providers</title>
<polygon fill="none" stroke="black" points="1589,-78 1589,-130 1775,-130 1775,-78 1589,-78"/>
</g>
<g id="clust61" class="cluster">
<title>cluster_MailModule</title>
<polygon fill="none" stroke="black" stroke-dasharray="1,5" points="2423,-146 2423,-214 2683,-214 2683,-146 2423,-146"/>
</g>
<g id="clust64" class="cluster">
<title>cluster_MailModule_exports</title>
<polygon fill="none" stroke="black" points="2571,-154 2571,-206 2675,-206 2675,-154 2571,-154"/>
</g>
<g id="clust66" class="cluster">
<title>cluster_MailModule_providers</title>
<polygon fill="none" stroke="black" points="2431,-154 2431,-206 2563,-206 2563,-154 2431,-154"/>
</g>
<g id="clust67" class="cluster">
<title>cluster_MenuModule</title>
<polygon fill="none" stroke="black" stroke-dasharray="1,5" points="1791,-70 1791,-138 1949,-138 1949,-70 1791,-70"/>
</g>
<g id="clust72" class="cluster">
<title>cluster_MenuModule_providers</title>
<polygon fill="none" stroke="black" points="1799,-78 1799,-130 1941,-130 1941,-78 1799,-78"/>
</g>
<g id="clust73" class="cluster">
<title>cluster_PlantModule</title>
<polygon fill="none" stroke="black" stroke-dasharray="1,5" points="1957,-70 1957,-138 2109,-138 2109,-70 1957,-70"/>
</g>
<g id="clust78" class="cluster">
<title>cluster_PlantModule_providers</title>
<polygon fill="none" stroke="black" points="1965,-78 1965,-130 2101,-130 2101,-78 1965,-78"/>
</g>
<g id="clust79" class="cluster">
<title>cluster_RedisModule</title>
<polygon fill="none" stroke="black" stroke-dasharray="1,5" points="198,-222 198,-290 472,-290 472,-222 198,-222"/>
</g>
<g id="clust82" class="cluster">
<title>cluster_RedisModule_exports</title>
<polygon fill="none" stroke="black" points="354,-230 354,-282 464,-282 464,-230 354,-230"/>
</g>
<g id="clust84" class="cluster">
<title>cluster_RedisModule_providers</title>
<polygon fill="none" stroke="black" points="206,-230 206,-282 346,-282 346,-230 206,-230"/>
</g>
<g id="clust85" class="cluster">
<title>cluster_RoleModule</title>
<polygon fill="none" stroke="black" stroke-dasharray="1,5" points="2117,-70 2117,-138 2265,-138 2265,-70 2117,-70"/>
</g>
<g id="clust90" class="cluster">
<title>cluster_RoleModule_providers</title>
<polygon fill="none" stroke="black" points="2125,-78 2125,-130 2257,-130 2257,-78 2125,-78"/>
</g>
<g id="clust91" class="cluster">
<title>cluster_UserModule</title>
<polygon fill="none" stroke="black" stroke-dasharray="1,5" points="480,-222 480,-290 740,-290 740,-222 480,-222"/>
</g>
<g id="clust94" class="cluster">
<title>cluster_UserModule_exports</title>
<polygon fill="none" stroke="black" points="628,-230 628,-282 732,-282 732,-230 628,-230"/>
</g>
<g id="clust96" class="cluster">
<title>cluster_UserModule_providers</title>
<polygon fill="none" stroke="black" points="488,-230 488,-282 620,-282 620,-230 488,-230"/>
</g>
<!-- AiModelService -->
<g id="node1" class="node">
<title>AiModelService</title>
<ellipse fill="#fdb462" stroke="black" cx="99" cy="-180" rx="74.72" ry="18"/>
<text text-anchor="middle" x="99" y="-175.8" font-family="Times,serif" font-size="14.00">AiModelService</text>
</g>
<!-- AiModelModule -->
<g id="node2" class="node">
<title>AiModelModule</title>
<polygon fill="#8dd3c7" stroke="black" points="168.1,-274 165.1,-278 144.1,-278 141.1,-274 57.9,-274 57.9,-238 168.1,-238 168.1,-274"/>
<text text-anchor="middle" x="113" y="-251.8" font-family="Times,serif" font-size="14.00">AiModelModule</text>
</g>
<!-- AiModelService&#45;&gt;AiModelModule -->
<g id="edge1" class="edge">
<title>AiModelService&#45;&gt;AiModelModule</title>
<path fill="none" stroke="black" d="M113,-198.01C113,-198.01 113,-227.85 113,-227.85"/>
<polygon fill="black" stroke="black" points="109.5,-227.85 113,-237.85 116.5,-227.85 109.5,-227.85"/>
</g>
<!-- AppModule -->
<g id="node9" class="node">
<title>AppModule</title>
<polygon fill="#8dd3c7" stroke="black" points="938.66,-339 935.66,-343 914.66,-343 911.66,-339 855.34,-339 855.34,-303 938.66,-303 938.66,-339"/>
<text text-anchor="middle" x="897" y="-316.8" font-family="Times,serif" font-size="14.00">AppModule</text>
</g>
<!-- AiModelModule&#45;&gt;AppModule -->
<g id="edge22" class="edge">
<title>AiModelModule&#45;&gt;AppModule</title>
<path fill="none" stroke="black" d="M113,-274.11C113,-293.34 113,-321 113,-321 113,-321 845.13,-321 845.13,-321"/>
<polygon fill="black" stroke="black" points="845.13,-324.5 855.13,-321 845.13,-317.5 845.13,-324.5"/>
</g>
<!-- AiConfigsService -->
<g id="node3" class="node">
<title>AiConfigsService</title>
<ellipse fill="#fdb462" stroke="black" cx="3667" cy="-180" rx="80.45" ry="18"/>
<text text-anchor="middle" x="3667" y="-175.8" font-family="Times,serif" font-size="14.00">AiConfigsService</text>
</g>
<!-- AiServiceModule -->
<g id="node5" class="node">
<title>AiServiceModule</title>
<polygon fill="#8dd3c7" stroke="black" points="3724.53,-274 3721.53,-278 3700.53,-278 3697.53,-274 3609.47,-274 3609.47,-238 3724.53,-238 3724.53,-274"/>
<text text-anchor="middle" x="3667" y="-251.8" font-family="Times,serif" font-size="14.00">AiServiceModule</text>
</g>
<!-- AiConfigsService&#45;&gt;AiServiceModule -->
<g id="edge2" class="edge">
<title>AiConfigsService&#45;&gt;AiServiceModule</title>
<path fill="none" stroke="black" d="M3667,-198.01C3667,-198.01 3667,-227.85 3667,-227.85"/>
<polygon fill="black" stroke="black" points="3663.5,-227.85 3667,-237.85 3670.5,-227.85 3663.5,-227.85"/>
</g>
<!-- AiServiceService -->
<g id="node4" class="node">
<title>AiServiceService</title>
<ellipse fill="#fdb462" stroke="black" cx="3844" cy="-180" rx="78.7" ry="18"/>
<text text-anchor="middle" x="3844" y="-175.8" font-family="Times,serif" font-size="14.00">AiServiceService</text>
</g>
<!-- AiServiceService&#45;&gt;AiServiceModule -->
<g id="edge3" class="edge">
<title>AiServiceService&#45;&gt;AiServiceModule</title>
<path fill="none" stroke="black" d="M3844,-198.01C3844,-220.49 3844,-256 3844,-256 3844,-256 3734.96,-256 3734.96,-256"/>
<polygon fill="black" stroke="black" points="3734.96,-252.5 3724.96,-256 3734.96,-259.5 3734.96,-252.5"/>
</g>
<!-- AiServiceModule&#45;&gt;AppModule -->
<g id="edge23" class="edge">
<title>AiServiceModule&#45;&gt;AppModule</title>
<path fill="none" stroke="black" d="M3667,-274.13C3667,-284.71 3667,-296 3667,-296 3667,-296 934.34,-296 934.34,-296 934.34,-296 934.34,-296.68 934.34,-296.68"/>
<polygon fill="black" stroke="black" points="930.84,-292.83 934.34,-302.83 937.84,-292.83 930.84,-292.83"/>
</g>
<!-- AuthModule -->
<g id="node6" class="node">
<title>AuthModule</title>
<polygon fill="#8dd3c7" stroke="black" points="2166.55,-198 2163.55,-202 2142.55,-202 2139.55,-198 2079.45,-198 2079.45,-162 2166.55,-162 2166.55,-198"/>
<text text-anchor="middle" x="2123" y="-175.8" font-family="Times,serif" font-size="14.00">AuthModule</text>
</g>
<!-- AuthModule&#45;&gt;AppModule -->
<g id="edge4" class="edge">
<title>AuthModule&#45;&gt;AppModule</title>
<path fill="none" stroke="black" d="M2137.59,-198.14C2137.59,-236.23 2137.59,-321 2137.59,-321 2137.59,-321 948.99,-321 948.99,-321"/>
<polygon fill="black" stroke="black" points="948.99,-317.5 938.99,-321 948.99,-324.5 948.99,-317.5"/>
</g>
<!-- AuthModule&#45;&gt;AppModule -->
<g id="edge24" class="edge">
<title>AuthModule&#45;&gt;AppModule</title>
<path fill="none" stroke="black" d="M2108.41,-198.17C2108.41,-235.85 2108.41,-319 2108.41,-319 2108.41,-319 948.7,-319 948.7,-319"/>
<polygon fill="black" stroke="black" points="948.7,-315.5 938.7,-319 948.7,-322.5 948.7,-315.5"/>
</g>
<!-- DatabaseModule -->
<g id="node7" class="node">
<title>DatabaseModule</title>
<polygon fill="#8dd3c7" stroke="black" points="2295.35,-198 2292.35,-202 2271.35,-202 2268.35,-198 2184.65,-198 2184.65,-162 2295.35,-162 2295.35,-198"/>
<text text-anchor="middle" x="2240" y="-175.8" font-family="Times,serif" font-size="14.00">DatabaseModule</text>
</g>
<!-- DatabaseModule&#45;&gt;AppModule -->
<g id="edge5" class="edge">
<title>DatabaseModule&#45;&gt;AppModule</title>
<path fill="none" stroke="black" d="M2232.46,-198.27C2232.46,-238.06 2232.46,-329 2232.46,-329 2232.46,-329 948.8,-329 948.8,-329"/>
<polygon fill="black" stroke="black" points="948.8,-325.5 938.8,-329 948.8,-332.5 948.8,-325.5"/>
</g>
<!-- DatabaseModule&#45;&gt;AppModule -->
<g id="edge7" class="edge">
<title>DatabaseModule&#45;&gt;AppModule</title>
<path fill="none" stroke="black" d="M2240.44,-198.09C2240.44,-237.99 2240.44,-330 2240.44,-330 2240.44,-330 948.68,-330 948.68,-330"/>
<polygon fill="black" stroke="black" points="948.68,-326.5 938.68,-330 948.68,-333.5 948.68,-326.5"/>
</g>
<!-- DatabaseModule&#45;&gt;AppModule -->
<g id="edge9" class="edge">
<title>DatabaseModule&#45;&gt;AppModule</title>
<path fill="none" stroke="black" d="M2208.52,-198.07C2208.52,-236.94 2208.52,-325 2208.52,-325 2208.52,-325 948.78,-325 948.78,-325"/>
<polygon fill="black" stroke="black" points="948.78,-321.5 938.78,-325 948.78,-328.5 948.78,-321.5"/>
</g>
<!-- DatabaseModule&#45;&gt;AppModule -->
<g id="edge12" class="edge">
<title>DatabaseModule&#45;&gt;AppModule</title>
<path fill="none" stroke="black" d="M2200.54,-198.11C2200.54,-236.59 2200.54,-323 2200.54,-323 2200.54,-323 948.89,-323 948.89,-323"/>
<polygon fill="black" stroke="black" points="948.89,-319.5 938.89,-323 948.89,-326.5 948.89,-319.5"/>
</g>
<!-- DatabaseModule&#45;&gt;AppModule -->
<g id="edge13" class="edge">
<title>DatabaseModule&#45;&gt;AppModule</title>
<path fill="none" stroke="black" d="M2216.5,-198.2C2216.5,-237.33 2216.5,-326 2216.5,-326 2216.5,-326 948.67,-326 948.67,-326"/>
<polygon fill="black" stroke="black" points="948.67,-322.5 938.67,-326 948.67,-329.5 948.67,-322.5"/>
</g>
<!-- DatabaseModule&#45;&gt;AppModule -->
<g id="edge15" class="edge">
<title>DatabaseModule&#45;&gt;AppModule</title>
<path fill="none" stroke="black" d="M2192.56,-198.27C2192.56,-236.63 2192.56,-322 2192.56,-322 2192.56,-322 949,-322 949,-322"/>
<polygon fill="black" stroke="black" points="949,-318.5 939,-322 949,-325.5 949,-318.5"/>
</g>
<!-- DatabaseModule&#45;&gt;AppModule -->
<g id="edge16" class="edge">
<title>DatabaseModule&#45;&gt;AppModule</title>
<path fill="none" stroke="black" d="M2224.48,-198.03C2224.48,-237.28 2224.48,-327 2224.48,-327 2224.48,-327 948.92,-327 948.92,-327"/>
<polygon fill="black" stroke="black" points="948.92,-323.5 938.92,-327 948.92,-330.5 948.92,-323.5"/>
</g>
<!-- DatabaseModule&#45;&gt;AppModule -->
<g id="edge19" class="edge">
<title>DatabaseModule&#45;&gt;AppModule</title>
<path fill="none" stroke="black" d="M2248.42,-198.21C2248.42,-238.38 2248.42,-331 2248.42,-331 2248.42,-331 948.93,-331 948.93,-331"/>
<polygon fill="black" stroke="black" points="948.93,-327.5 938.93,-331 948.93,-334.5 948.93,-327.5"/>
</g>
<!-- DiagnosisModule -->
<g id="node10" class="node">
<title>DiagnosisModule</title>
<polygon fill="#8dd3c7" stroke="black" points="2398.54,-339 2395.54,-343 2374.54,-343 2371.54,-339 2283.46,-339 2283.46,-303 2398.54,-303 2398.54,-339"/>
<text text-anchor="middle" x="2341" y="-316.8" font-family="Times,serif" font-size="14.00">DiagnosisModule</text>
</g>
<!-- DatabaseModule&#45;&gt;DiagnosisModule -->
<g id="edge40" class="edge">
<title>DatabaseModule&#45;&gt;DiagnosisModule</title>
<path fill="none" stroke="black" d="M2256.4,-198.08C2256.4,-238.97 2256.4,-335 2256.4,-335 2256.4,-335 2273.17,-335 2273.17,-335"/>
<polygon fill="black" stroke="black" points="2273.17,-338.5 2283.17,-335 2273.16,-331.5 2273.17,-338.5"/>
</g>
<!-- FileModule -->
<g id="node12" class="node">
<title>FileModule</title>
<polygon fill="#8dd3c7" stroke="black" points="2361.83,-274 2358.83,-278 2337.83,-278 2334.83,-274 2280.17,-274 2280.17,-238 2361.83,-238 2361.83,-274"/>
<text text-anchor="middle" x="2321" y="-251.8" font-family="Times,serif" font-size="14.00">FileModule</text>
</g>
<!-- DatabaseModule&#45;&gt;FileModule -->
<g id="edge45" class="edge">
<title>DatabaseModule&#45;&gt;FileModule</title>
<path fill="none" stroke="black" d="M2287.88,-198.01C2287.88,-198.01 2287.88,-227.85 2287.88,-227.85"/>
<polygon fill="black" stroke="black" points="2284.38,-227.85 2287.88,-237.85 2291.38,-227.85 2284.38,-227.85"/>
</g>
<!-- MenuModule -->
<g id="node8" class="node">
<title>MenuModule</title>
<polygon fill="#8dd3c7" stroke="black" points="1955.21,-198 1952.21,-202 1931.21,-202 1928.21,-198 1862.79,-198 1862.79,-162 1955.21,-162 1955.21,-198"/>
<text text-anchor="middle" x="1909" y="-175.8" font-family="Times,serif" font-size="14.00">MenuModule</text>
</g>
<!-- MenuModule&#45;&gt;AppModule -->
<g id="edge6" class="edge">
<title>MenuModule&#45;&gt;AppModule</title>
<path fill="none" stroke="black" d="M1924.37,-198.19C1924.37,-235.46 1924.37,-317 1924.37,-317 1924.37,-317 948.87,-317 948.87,-317"/>
<polygon fill="black" stroke="black" points="948.87,-313.5 938.87,-317 948.87,-320.5 948.87,-313.5"/>
</g>
<!-- MenuModule&#45;&gt;AppModule -->
<g id="edge29" class="edge">
<title>MenuModule&#45;&gt;AppModule</title>
<path fill="none" stroke="black" d="M1893.63,-198.21C1893.63,-235.06 1893.63,-315 1893.63,-315 1893.63,-315 948.87,-315 948.87,-315"/>
<polygon fill="black" stroke="black" points="948.87,-311.5 938.87,-315 948.87,-318.5 948.87,-311.5"/>
</g>
<!-- DiagnosisModule&#45;&gt;AppModule -->
<g id="edge8" class="edge">
<title>DiagnosisModule&#45;&gt;AppModule</title>
<path fill="none" stroke="black" d="M2283.05,-338C2283.05,-338 948.82,-338 948.82,-338"/>
<polygon fill="black" stroke="black" points="948.82,-334.5 938.82,-338 948.82,-341.5 948.82,-334.5"/>
</g>
<!-- DiagnosisModule&#45;&gt;AppModule -->
<g id="edge26" class="edge">
<title>DiagnosisModule&#45;&gt;AppModule</title>
<path fill="none" stroke="black" d="M2283.05,-337C2283.05,-337 948.82,-337 948.82,-337"/>
<polygon fill="black" stroke="black" points="948.82,-333.5 938.82,-337 948.82,-340.5 948.82,-333.5"/>
</g>
<!-- DatasetModule -->
<g id="node11" class="node">
<title>DatasetModule</title>
<polygon fill="#8dd3c7" stroke="black" points="1702.53,-198 1699.53,-202 1678.53,-202 1675.53,-198 1601.47,-198 1601.47,-162 1702.53,-162 1702.53,-198"/>
<text text-anchor="middle" x="1652" y="-175.8" font-family="Times,serif" font-size="14.00">DatasetModule</text>
</g>
<!-- DatasetModule&#45;&gt;AppModule -->
<g id="edge10" class="edge">
<title>DatasetModule&#45;&gt;AppModule</title>
<path fill="none" stroke="black" d="M1635.08,-198.21C1635.08,-234.21 1635.08,-311 1635.08,-311 1635.08,-311 948.8,-311 948.8,-311"/>
<polygon fill="black" stroke="black" points="948.8,-307.5 938.8,-311 948.8,-314.5 948.8,-307.5"/>
</g>
<!-- DatasetModule&#45;&gt;AppModule -->
<g id="edge25" class="edge">
<title>DatasetModule&#45;&gt;AppModule</title>
<path fill="none" stroke="black" d="M1668.92,-198.21C1668.92,-234.64 1668.92,-313 1668.92,-313 1668.92,-313 948.78,-313 948.78,-313"/>
<polygon fill="black" stroke="black" points="948.78,-309.5 938.78,-313 948.78,-316.5 948.78,-309.5"/>
</g>
<!-- FileModule&#45;&gt;AppModule -->
<g id="edge11" class="edge">
<title>FileModule&#45;&gt;AppModule</title>
<path fill="none" stroke="black" d="M2280.15,-250C2271.22,-250 2264.38,-250 2264.38,-250 2264.38,-250 2264.38,-333 2264.38,-333 2264.38,-333 948.67,-333 948.67,-333"/>
<polygon fill="black" stroke="black" points="948.67,-329.5 938.67,-333 948.67,-336.5 948.67,-329.5"/>
</g>
<!-- FileModule&#45;&gt;AppModule -->
<g id="edge27" class="edge">
<title>FileModule&#45;&gt;AppModule</title>
<path fill="none" stroke="black" d="M2279.96,-262C2275.4,-262 2272.36,-262 2272.36,-262 2272.36,-262 2272.36,-334 2272.36,-334 2272.36,-334 948.91,-334 948.91,-334"/>
<polygon fill="black" stroke="black" points="948.91,-330.5 938.91,-334 948.91,-337.5 948.91,-330.5"/>
</g>
<!-- FileModule&#45;&gt;DiagnosisModule -->
<g id="edge38" class="edge">
<title>FileModule&#45;&gt;DiagnosisModule</title>
<path fill="none" stroke="black" d="M2322.45,-274.11C2322.45,-274.11 2322.45,-292.99 2322.45,-292.99"/>
<polygon fill="black" stroke="black" points="2318.95,-292.99 2322.45,-302.99 2325.95,-292.99 2318.95,-292.99"/>
</g>
<!-- FileOperationService  -->
<g id="node27" class="node">
<title>FileOperationService </title>
<polygon fill="#fb8072" stroke="black" points="3186.73,-198 3047.27,-198 3047.27,-162 3186.73,-162 3186.73,-198"/>
<text text-anchor="middle" x="3117" y="-175.8" font-family="Times,serif" font-size="14.00">FileOperationService </text>
</g>
<!-- FileModule&#45;&gt;FileOperationService  -->
<g id="edge43" class="edge">
<title>FileModule&#45;&gt;FileOperationService </title>
<path fill="none" stroke="black" stroke-dasharray="5,2" d="M2361.84,-260C2524.45,-260 3117,-260 3117,-260 3117,-260 3117,-208.15 3117,-208.15"/>
<polygon fill="black" stroke="black" points="3120.5,-208.15 3117,-198.15 3113.5,-208.15 3120.5,-208.15"/>
</g>
<!-- DownloadService -->
<g id="node13" class="node">
<title>DownloadService</title>
<ellipse fill="#fdb462" stroke="black" cx="1283" cy="-256" rx="80.44" ry="18"/>
<text text-anchor="middle" x="1283" y="-251.8" font-family="Times,serif" font-size="14.00">DownloadService</text>
</g>
<!-- DownloadService&#45;&gt;AppModule -->
<g id="edge14" class="edge">
<title>DownloadService&#45;&gt;AppModule</title>
<path fill="none" stroke="black" d="M1283,-274.05C1283,-288.37 1283,-306 1283,-306 1283,-306 948.68,-306 948.68,-306"/>
<polygon fill="black" stroke="black" points="948.68,-302.5 938.68,-306 948.68,-309.5 948.68,-302.5"/>
</g>
<!-- RedisModule -->
<g id="node14" class="node">
<title>RedisModule</title>
<polygon fill="#8dd3c7" stroke="black" points="1478.94,-198 1475.94,-202 1454.94,-202 1451.94,-198 1387.06,-198 1387.06,-162 1478.94,-162 1478.94,-198"/>
<text text-anchor="middle" x="1433" y="-175.8" font-family="Times,serif" font-size="14.00">RedisModule</text>
</g>
<!-- RedisModule&#45;&gt;AppModule -->
<g id="edge17" class="edge">
<title>RedisModule&#45;&gt;AppModule</title>
<path fill="none" stroke="black" d="M1433,-198.2C1433,-233.31 1433,-307 1433,-307 1433,-307 949.06,-307 949.06,-307"/>
<polygon fill="black" stroke="black" points="949.06,-303.5 939.06,-307 949.06,-310.5 949.06,-303.5"/>
</g>
<!-- RedisService  -->
<g id="node35" class="node">
<title>RedisService </title>
<polygon fill="#fb8072" stroke="black" points="455.86,-274 362.14,-274 362.14,-238 455.86,-238 455.86,-274"/>
<text text-anchor="middle" x="409" y="-251.8" font-family="Times,serif" font-size="14.00">RedisService </text>
</g>
<!-- RedisModule&#45;&gt;RedisService  -->
<g id="edge56" class="edge">
<title>RedisModule&#45;&gt;RedisService </title>
<path fill="none" stroke="black" stroke-dasharray="5,2" d="M1387.01,-186C1187.76,-186 409,-186 409,-186 409,-186 409,-227.97 409,-227.97"/>
<polygon fill="black" stroke="black" points="405.5,-227.97 409,-237.97 412.5,-227.97 405.5,-227.97"/>
</g>
<!-- UploadService -->
<g id="node15" class="node">
<title>UploadService</title>
<ellipse fill="#fdb462" stroke="black" cx="1116" cy="-256" rx="68.34" ry="18"/>
<text text-anchor="middle" x="1116" y="-251.8" font-family="Times,serif" font-size="14.00">UploadService</text>
</g>
<!-- UploadService&#45;&gt;AppModule -->
<g id="edge18" class="edge">
<title>UploadService&#45;&gt;AppModule</title>
<path fill="none" stroke="black" d="M1116,-274.25C1116,-288.18 1116,-305 1116,-305 1116,-305 948.71,-305 948.71,-305"/>
<polygon fill="black" stroke="black" points="948.71,-301.5 938.71,-305 948.71,-308.5 948.71,-301.5"/>
</g>
<!-- RoleModule -->
<g id="node16" class="node">
<title>RoleModule</title>
<polygon fill="#8dd3c7" stroke="black" points="2398.99,-198 2395.99,-202 2374.99,-202 2371.99,-198 2313.01,-198 2313.01,-162 2398.99,-162 2398.99,-198"/>
<text text-anchor="middle" x="2356" y="-175.8" font-family="Times,serif" font-size="14.00">RoleModule</text>
</g>
<!-- RoleModule&#45;&gt;AppModule -->
<g id="edge20" class="edge">
<title>RoleModule&#45;&gt;AppModule</title>
<path fill="none" stroke="black" d="M2374.03,-198.24C2374.03,-227.57 2374.03,-282 2374.03,-282 2374.03,-282 925.36,-282 925.36,-282 925.36,-282 925.36,-292.87 925.36,-292.87"/>
<polygon fill="black" stroke="black" points="921.86,-292.87 925.36,-302.87 928.86,-292.87 921.86,-292.87"/>
</g>
<!-- RoleModule&#45;&gt;AppModule -->
<g id="edge31" class="edge">
<title>RoleModule&#45;&gt;AppModule</title>
<path fill="none" stroke="black" d="M2386.4,-198.49C2386.4,-229.59 2386.4,-289 2386.4,-289 2386.4,-289 929.85,-289 929.85,-289 929.85,-289 929.85,-292.76 929.85,-292.76"/>
<polygon fill="black" stroke="black" points="926.35,-292.76 929.85,-302.76 933.35,-292.76 926.35,-292.76"/>
</g>
<!-- UserModule -->
<g id="node17" class="node">
<title>UserModule</title>
<polygon fill="#8dd3c7" stroke="black" points="1582.98,-198 1579.98,-202 1558.98,-202 1555.98,-198 1497.02,-198 1497.02,-162 1582.98,-162 1582.98,-198"/>
<text text-anchor="middle" x="1540" y="-175.8" font-family="Times,serif" font-size="14.00">UserModule</text>
</g>
<!-- UserModule&#45;&gt;AppModule -->
<g id="edge21" class="edge">
<title>UserModule&#45;&gt;AppModule</title>
<path fill="none" stroke="black" d="M1548.6,-198.21C1548.6,-233.77 1548.6,-309 1548.6,-309 1548.6,-309 948.75,-309 948.75,-309"/>
<polygon fill="black" stroke="black" points="948.75,-305.5 938.75,-309 948.75,-312.5 948.75,-305.5"/>
</g>
<!-- UserModule&#45;&gt;AppModule -->
<g id="edge32" class="edge">
<title>UserModule&#45;&gt;AppModule</title>
<path fill="none" stroke="black" d="M1565.79,-198.08C1565.79,-233.8 1565.79,-310 1565.79,-310 1565.79,-310 948.84,-310 948.84,-310"/>
<polygon fill="black" stroke="black" points="948.84,-306.5 938.84,-310 948.84,-313.5 948.84,-306.5"/>
</g>
<!-- UserService  -->
<g id="node38" class="node">
<title>UserService </title>
<polygon fill="#fb8072" stroke="black" points="723.9,-274 636.1,-274 636.1,-238 723.9,-238 723.9,-274"/>
<text text-anchor="middle" x="680" y="-251.8" font-family="Times,serif" font-size="14.00">UserService </text>
</g>
<!-- UserModule&#45;&gt;UserService  -->
<g id="edge59" class="edge">
<title>UserModule&#45;&gt;UserService </title>
<path fill="none" stroke="black" stroke-dasharray="5,2" d="M1531.4,-198.04C1531.4,-210.56 1531.4,-225 1531.4,-225 1531.4,-225 680,-225 680,-225 680,-225 680,-227.97 680,-227.97"/>
<polygon fill="black" stroke="black" points="676.5,-227.97 680,-237.97 683.5,-227.97 676.5,-227.97"/>
</g>
<!-- KnowledgeModule -->
<g id="node18" class="node">
<title>KnowledgeModule</title>
<polygon fill="#8dd3c7" stroke="black" points="1845.08,-198 1842.08,-202 1821.08,-202 1818.08,-198 1720.92,-198 1720.92,-162 1845.08,-162 1845.08,-198"/>
<text text-anchor="middle" x="1783" y="-175.8" font-family="Times,serif" font-size="14.00">KnowledgeModule</text>
</g>
<!-- KnowledgeModule&#45;&gt;AppModule -->
<g id="edge28" class="edge">
<title>KnowledgeModule&#45;&gt;AppModule</title>
<path fill="none" stroke="black" d="M1783,-198.07C1783,-234.65 1783,-314 1783,-314 1783,-314 948.84,-314 948.84,-314"/>
<polygon fill="black" stroke="black" points="948.84,-310.5 938.84,-314 948.84,-317.5 948.84,-310.5"/>
</g>
<!-- PlantModule -->
<g id="node19" class="node">
<title>PlantModule</title>
<polygon fill="#8dd3c7" stroke="black" points="2061.33,-198 2058.33,-202 2037.33,-202 2034.33,-198 1972.67,-198 1972.67,-162 2061.33,-162 2061.33,-198"/>
<text text-anchor="middle" x="2017" y="-175.8" font-family="Times,serif" font-size="14.00">PlantModule</text>
</g>
<!-- PlantModule&#45;&gt;AppModule -->
<g id="edge30" class="edge">
<title>PlantModule&#45;&gt;AppModule</title>
<path fill="none" stroke="black" d="M2017,-198.04C2017,-235.45 2017,-318 2017,-318 2017,-318 948.86,-318 948.86,-318"/>
<polygon fill="black" stroke="black" points="948.86,-314.5 938.86,-318 948.86,-321.5 948.86,-314.5"/>
</g>
<!-- AppService -->
<g id="node20" class="node">
<title>AppService</title>
<ellipse fill="#fdb462" stroke="black" cx="973" cy="-256" rx="56.74" ry="18"/>
<text text-anchor="middle" x="973" y="-251.8" font-family="Times,serif" font-size="14.00">AppService</text>
</g>
<!-- AppService&#45;&gt;AppModule -->
<g id="edge33" class="edge">
<title>AppService&#45;&gt;AppModule</title>
<path fill="none" stroke="black" d="M920.87,-263.2C920.87,-263.2 920.87,-292.96 920.87,-292.96"/>
<polygon fill="black" stroke="black" points="917.37,-292.96 920.87,-302.96 924.37,-292.96 917.37,-292.96"/>
</g>
<!-- JwtStrategy -->
<g id="node21" class="node">
<title>JwtStrategy</title>
<ellipse fill="#fdb462" stroke="black" cx="2482" cy="-104" rx="56.76" ry="18"/>
<text text-anchor="middle" x="2482" y="-99.8" font-family="Times,serif" font-size="14.00">JwtStrategy</text>
</g>
<!-- JwtStrategy&#45;&gt;AuthModule -->
<g id="edge34" class="edge">
<title>JwtStrategy&#45;&gt;AuthModule</title>
<path fill="none" stroke="black" d="M2432.07,-112.81C2432.07,-124.04 2432.07,-142 2432.07,-142 2432.07,-142 2149.77,-142 2149.77,-142 2149.77,-142 2149.77,-151.89 2149.77,-151.89"/>
<polygon fill="black" stroke="black" points="2146.27,-151.89 2149.77,-161.89 2153.27,-151.89 2146.27,-151.89"/>
</g>
<!-- MailModule -->
<g id="node22" class="node">
<title>MailModule</title>
<polygon fill="#8dd3c7" stroke="black" points="2648.99,-122 2645.99,-126 2624.99,-126 2621.99,-122 2563.01,-122 2563.01,-86 2648.99,-86 2648.99,-122"/>
<text text-anchor="middle" x="2606" y="-99.8" font-family="Times,serif" font-size="14.00">MailModule</text>
</g>
<!-- MailModule&#45;&gt;AuthModule -->
<g id="edge35" class="edge">
<title>MailModule&#45;&gt;AuthModule</title>
<path fill="none" stroke="black" d="M2568.35,-122.24C2568.35,-137.57 2568.35,-157 2568.35,-157 2568.35,-157 2158.27,-157 2158.27,-157 2158.27,-157 2158.27,-157.49 2158.27,-157.49"/>
<polygon fill="black" stroke="black" points="2154.77,-151.88 2158.27,-161.88 2161.77,-151.88 2154.77,-151.88"/>
</g>
<!-- MailModule&#45;&gt;MailModule -->
<g id="edge51" class="edge">
<title>MailModule&#45;&gt;MailModule</title>
<path fill="none" stroke="black" d="M2606,-85.58C2606,-76.72 2606,-68 2606,-68 2606,-68 2559.12,-68 2559.12,-68 2559.12,-68 2559.12,-152 2559.12,-152 2559.12,-152 2573.7,-152 2573.7,-152 2573.7,-152 2573.7,-132.15 2573.7,-132.15"/>
<polygon fill="black" stroke="black" points="2577.2,-132.15 2573.7,-122.15 2570.2,-132.15 2577.2,-132.15"/>
</g>
<!-- MailService  -->
<g id="node31" class="node">
<title>MailService </title>
<polygon fill="#fb8072" stroke="black" points="2666.92,-198 2579.08,-198 2579.08,-162 2666.92,-162 2666.92,-198"/>
<text text-anchor="middle" x="2623" y="-175.8" font-family="Times,serif" font-size="14.00">MailService </text>
</g>
<!-- MailModule&#45;&gt;MailService  -->
<g id="edge52" class="edge">
<title>MailModule&#45;&gt;MailService </title>
<path fill="none" stroke="black" stroke-dasharray="5,2" d="M2614.02,-122.01C2614.02,-122.01 2614.02,-151.85 2614.02,-151.85"/>
<polygon fill="black" stroke="black" points="2610.52,-151.85 2614.02,-161.85 2617.52,-151.85 2610.52,-151.85"/>
</g>
<!-- AuthService -->
<g id="node23" class="node">
<title>AuthService</title>
<ellipse fill="#fdb462" stroke="black" cx="2348" cy="-104" rx="59.11" ry="18"/>
<text text-anchor="middle" x="2348" y="-99.8" font-family="Times,serif" font-size="14.00">AuthService</text>
</g>
<!-- AuthService&#45;&gt;AuthModule -->
<g id="edge36" class="edge">
<title>AuthService&#45;&gt;AuthModule</title>
<path fill="none" stroke="black" d="M2304.21,-116.29C2304.21,-125.67 2304.21,-137 2304.21,-137 2304.21,-137 2141.27,-137 2141.27,-137 2141.27,-137 2141.27,-151.51 2141.27,-151.51"/>
<polygon fill="black" stroke="black" points="2137.77,-151.51 2141.27,-161.51 2144.77,-151.51 2137.77,-151.51"/>
</g>
<!-- DatasetService -->
<g id="node24" class="node">
<title>DatasetService</title>
<ellipse fill="#fdb462" stroke="black" cx="1488" cy="-104" rx="68.89" ry="18"/>
<text text-anchor="middle" x="1488" y="-99.8" font-family="Times,serif" font-size="14.00">DatasetService</text>
</g>
<!-- DatasetService&#45;&gt;DatasetModule -->
<g id="edge37" class="edge">
<title>DatasetService&#45;&gt;DatasetModule</title>
<path fill="none" stroke="black" d="M1557.05,-104C1575.41,-104 1590.24,-104 1590.24,-104 1590.24,-104 1590.24,-180 1590.24,-180 1590.24,-180 1591.35,-180 1591.35,-180"/>
<polygon fill="black" stroke="black" points="1591.28,-183.5 1601.28,-180 1591.28,-176.5 1591.28,-183.5"/>
</g>
<!-- DiagnosisService -->
<g id="node25" class="node">
<title>DiagnosisService</title>
<ellipse fill="#fdb462" stroke="black" cx="3306" cy="-180" rx="78.73" ry="18"/>
<text text-anchor="middle" x="3306" y="-175.8" font-family="Times,serif" font-size="14.00">DiagnosisService</text>
</g>
<!-- DiagnosisService&#45;&gt;DiagnosisModule -->
<g id="edge39" class="edge">
<title>DiagnosisService&#45;&gt;DiagnosisModule</title>
<path fill="none" stroke="black" d="M3279.8,-196.99C3279.8,-232.64 3279.8,-312 3279.8,-312 3279.8,-312 2408.66,-312 2408.66,-312"/>
<polygon fill="black" stroke="black" points="2408.66,-308.5 2398.66,-312 2408.66,-315.5 2408.66,-308.5"/>
</g>
<!-- DiagnosisService&#45;&gt;DiagnosisModule -->
<g id="edge42" class="edge">
<title>DiagnosisService&#45;&gt;DiagnosisModule</title>
<path fill="none" stroke="black" d="M3332.2,-197.01C3332.2,-234.51 3332.2,-321 3332.2,-321 3332.2,-321 2408.58,-321 2408.58,-321"/>
<polygon fill="black" stroke="black" points="2408.58,-317.5 2398.58,-321 2408.58,-324.5 2408.58,-317.5"/>
</g>
<!-- FileOperationModule -->
<g id="node26" class="node">
<title>FileOperationModule</title>
<polygon fill="#8dd3c7" stroke="black" points="3546.81,-198 3543.81,-202 3522.81,-202 3519.81,-198 3409.19,-198 3409.19,-162 3546.81,-162 3546.81,-198"/>
<text text-anchor="middle" x="3478" y="-175.8" font-family="Times,serif" font-size="14.00">FileOperationModule</text>
</g>
<!-- FileOperationModule&#45;&gt;DiagnosisModule -->
<g id="edge41" class="edge">
<title>FileOperationModule&#45;&gt;DiagnosisModule</title>
<path fill="none" stroke="black" d="M3500.88,-198.09C3500.88,-237.99 3500.88,-330 3500.88,-330 3500.88,-330 2408.92,-330 2408.92,-330"/>
<polygon fill="black" stroke="black" points="2408.92,-326.5 2398.92,-330 2408.92,-333.5 2408.92,-326.5"/>
</g>
<!-- FileOperationModule&#45;&gt;FileModule -->
<g id="edge46" class="edge">
<title>FileOperationModule&#45;&gt;FileModule</title>
<path fill="none" stroke="black" d="M3455.12,-198.03C3455.12,-223.51 3455.12,-267 3455.12,-267 3455.12,-267 2371.7,-267 2371.7,-267"/>
<polygon fill="black" stroke="black" points="2371.7,-263.5 2361.7,-267 2371.7,-270.5 2371.7,-263.5"/>
</g>
<!-- FileOperationModule&#45;&gt;FileOperationService  -->
<g id="edge48" class="edge">
<title>FileOperationModule&#45;&gt;FileOperationService </title>
<path fill="none" stroke="black" stroke-dasharray="5,2" d="M3500.88,-161.85C3500.88,-148.26 3500.88,-132 3500.88,-132 3500.88,-132 3117,-132 3117,-132 3117,-132 3117,-151.85 3117,-151.85"/>
<polygon fill="black" stroke="black" points="3113.5,-151.85 3117,-161.85 3120.5,-151.85 3113.5,-151.85"/>
</g>
<!-- FileOperationService -->
<g id="node28" class="node">
<title>FileOperationService</title>
<ellipse fill="#fdb462" stroke="black" cx="2801" cy="-180" rx="93.75" ry="18"/>
<text text-anchor="middle" x="2801" y="-175.8" font-family="Times,serif" font-size="14.00">FileOperationService</text>
</g>
<!-- FileOperationService&#45;&gt;FileModule -->
<g id="edge44" class="edge">
<title>FileOperationService&#45;&gt;FileModule</title>
<path fill="none" stroke="black" d="M2801,-198.03C2801,-217.58 2801,-246 2801,-246 2801,-246 2371.92,-246 2371.92,-246"/>
<polygon fill="black" stroke="black" points="2371.92,-242.5 2361.92,-246 2371.92,-249.5 2371.92,-242.5"/>
</g>
<!-- FileOperationService&#45;&gt;FileOperationModule -->
<g id="edge49" class="edge">
<title>FileOperationService&#45;&gt;FileOperationModule</title>
<path fill="none" stroke="black" d="M2801,-161.76C2801,-146.43 2801,-127 2801,-127 2801,-127 3455.12,-127 3455.12,-127 3455.12,-127 3455.12,-151.76 3455.12,-151.76"/>
<polygon fill="black" stroke="black" points="3451.62,-151.76 3455.12,-161.76 3458.62,-151.76 3451.62,-151.76"/>
</g>
<!-- FileService -->
<g id="node29" class="node">
<title>FileService</title>
<ellipse fill="#fdb462" stroke="black" cx="2968" cy="-180" rx="55.03" ry="18"/>
<text text-anchor="middle" x="2968" y="-175.8" font-family="Times,serif" font-size="14.00">FileService</text>
</g>
<!-- FileService&#45;&gt;FileModule -->
<g id="edge47" class="edge">
<title>FileService&#45;&gt;FileModule</title>
<path fill="none" stroke="black" d="M2968,-198.04C2968,-219.66 2968,-253 2968,-253 2968,-253 2371.96,-253 2371.96,-253"/>
<polygon fill="black" stroke="black" points="2371.96,-249.5 2361.96,-253 2371.96,-256.5 2371.96,-249.5"/>
</g>
<!-- KnowledgeService -->
<g id="node30" class="node">
<title>KnowledgeService</title>
<ellipse fill="#fdb462" stroke="black" cx="1682" cy="-104" rx="84.51" ry="18"/>
<text text-anchor="middle" x="1682" y="-99.8" font-family="Times,serif" font-size="14.00">KnowledgeService</text>
</g>
<!-- KnowledgeService&#45;&gt;KnowledgeModule -->
<g id="edge50" class="edge">
<title>KnowledgeService&#45;&gt;KnowledgeModule</title>
<path fill="none" stroke="black" d="M1743.73,-116.55C1743.73,-116.55 1743.73,-151.74 1743.73,-151.74"/>
<polygon fill="black" stroke="black" points="1740.23,-151.74 1743.73,-161.74 1747.23,-151.74 1740.23,-151.74"/>
</g>
<!-- MailService -->
<g id="node32" class="node">
<title>MailService</title>
<ellipse fill="#fdb462" stroke="black" cx="2497" cy="-180" rx="58.46" ry="18"/>
<text text-anchor="middle" x="2497" y="-175.8" font-family="Times,serif" font-size="14.00">MailService</text>
</g>
<!-- MailService&#45;&gt;MailModule -->
<g id="edge53" class="edge">
<title>MailService&#45;&gt;MailModule</title>
<path fill="none" stroke="black" d="M2546.93,-170.68C2546.93,-150.39 2546.93,-104 2546.93,-104 2546.93,-104 2552.76,-104 2552.76,-104"/>
<polygon fill="black" stroke="black" points="2552.76,-107.5 2562.76,-104 2552.76,-100.5 2552.76,-107.5"/>
</g>
<!-- MenuService -->
<g id="node33" class="node">
<title>MenuService</title>
<ellipse fill="#fdb462" stroke="black" cx="1870" cy="-104" rx="62.54" ry="18"/>
<text text-anchor="middle" x="1870" y="-99.8" font-family="Times,serif" font-size="14.00">MenuService</text>
</g>
<!-- MenuService&#45;&gt;MenuModule -->
<g id="edge54" class="edge">
<title>MenuService&#45;&gt;MenuModule</title>
<path fill="none" stroke="black" d="M1897.71,-120.49C1897.71,-120.49 1897.71,-151.95 1897.71,-151.95"/>
<polygon fill="black" stroke="black" points="1894.21,-151.95 1897.71,-161.95 1901.21,-151.95 1894.21,-151.95"/>
</g>
<!-- PlantService -->
<g id="node34" class="node">
<title>PlantService</title>
<ellipse fill="#fdb462" stroke="black" cx="2033" cy="-104" rx="59.69" ry="18"/>
<text text-anchor="middle" x="2033" y="-99.8" font-family="Times,serif" font-size="14.00">PlantService</text>
</g>
<!-- PlantService&#45;&gt;PlantModule -->
<g id="edge55" class="edge">
<title>PlantService&#45;&gt;PlantModule</title>
<path fill="none" stroke="black" d="M2017.16,-121.63C2017.16,-121.63 2017.16,-151.94 2017.16,-151.94"/>
<polygon fill="black" stroke="black" points="2013.66,-151.94 2017.16,-161.94 2020.66,-151.94 2013.66,-151.94"/>
</g>
<!-- RedisService -->
<g id="node36" class="node">
<title>RedisService</title>
<ellipse fill="#fdb462" stroke="black" cx="276" cy="-256" rx="61.97" ry="18"/>
<text text-anchor="middle" x="276" y="-251.8" font-family="Times,serif" font-size="14.00">RedisService</text>
</g>
<!-- RedisService&#45;&gt;RedisModule -->
<g id="edge57" class="edge">
<title>RedisService&#45;&gt;RedisModule</title>
<path fill="none" stroke="black" d="M276,-237.8C276,-213.64 276,-174 276,-174 276,-174 1376.93,-174 1376.93,-174"/>
<polygon fill="black" stroke="black" points="1376.93,-177.5 1386.93,-174 1376.93,-170.5 1376.93,-177.5"/>
</g>
<!-- RoleService -->
<g id="node37" class="node">
<title>RoleService</title>
<ellipse fill="#fdb462" stroke="black" cx="2191" cy="-104" rx="58.46" ry="18"/>
<text text-anchor="middle" x="2191" y="-99.8" font-family="Times,serif" font-size="14.00">RoleService</text>
</g>
<!-- RoleService&#45;&gt;RoleModule -->
<g id="edge58" class="edge">
<title>RoleService&#45;&gt;RoleModule</title>
<path fill="none" stroke="black" d="M2216.9,-120.5C2216.9,-132.63 2216.9,-147 2216.9,-147 2216.9,-147 2356,-147 2356,-147 2356,-147 2356,-151.96 2356,-151.96"/>
<polygon fill="black" stroke="black" points="2352.5,-151.96 2356,-161.96 2359.5,-151.96 2352.5,-151.96"/>
</g>
<!-- UserService -->
<g id="node39" class="node">
<title>UserService</title>
<ellipse fill="#fdb462" stroke="black" cx="554" cy="-256" rx="58.44" ry="18"/>
<text text-anchor="middle" x="554" y="-251.8" font-family="Times,serif" font-size="14.00">UserService</text>
</g>
<!-- UserService&#45;&gt;UserModule -->
<g id="edge60" class="edge">
<title>UserService&#45;&gt;UserModule</title>
<path fill="none" stroke="black" d="M554,-237.85C554,-225.73 554,-212 554,-212 554,-212 1514.21,-212 1514.21,-212 1514.21,-212 1514.21,-208.24 1514.21,-208.24"/>
<polygon fill="black" stroke="black" points="1517.71,-208.24 1514.21,-198.24 1510.71,-208.24 1517.71,-208.24"/>
</g>
</g>
</svg>
