<?xml version="1.0" encoding="UTF-8" standalone="no"?>
<!DOCTYPE svg PUBLIC "-//W3C//DTD SVG 1.1//EN"
 "http://www.w3.org/Graphics/SVG/1.1/DTD/svg11.dtd">
<!-- Generated by graphviz version 2.47.0 (20210316.0004)
 -->
<!-- Title: dependencies Pages: 1 -->
<svg width="518pt" height="211pt"
 viewBox="0.00 0.00 518.00 211.00" xmlns="http://www.w3.org/2000/svg" xmlns:xlink="http://www.w3.org/1999/xlink">
<g id="graph0" class="graph" transform="scale(1 1) rotate(0) translate(4 207)">
<title>dependencies</title>
<polygon fill="white" stroke="transparent" points="-4,4 -4,-207 514,-207 514,4 -4,4"/>
<text text-anchor="start" x="234.01" y="-42.4" font-family="Times-12" font-weight="bold" font-size="14.00">Legend</text>
<polygon fill="#ffffb3" stroke="transparent" points="21,-10 21,-30 41,-30 41,-10 21,-10"/>
<text text-anchor="start" x="44.63" y="-15.4" font-family="Times-12" font-size="14.00"> &#160;Declarations</text>
<polygon fill="#8dd3c7" stroke="transparent" points="134,-10 134,-30 154,-30 154,-10 134,-10"/>
<text text-anchor="start" x="157.73" y="-15.4" font-family="Times-12" font-size="14.00"> &#160;Module</text>
<polygon fill="#80b1d3" stroke="transparent" points="220,-10 220,-30 240,-30 240,-10 220,-10"/>
<text text-anchor="start" x="243.78" y="-15.4" font-family="Times-12" font-size="14.00"> &#160;Bootstrap</text>
<polygon fill="#fdb462" stroke="transparent" points="317,-10 317,-30 337,-30 337,-10 317,-10"/>
<text text-anchor="start" x="340.67" y="-15.4" font-family="Times-12" font-size="14.00"> &#160;Providers</text>
<polygon fill="#fb8072" stroke="transparent" points="413,-10 413,-30 433,-30 433,-10 413,-10"/>
<text text-anchor="start" x="436.73" y="-15.4" font-family="Times-12" font-size="14.00"> &#160;Exports</text>
<g id="clust1" class="cluster">
<title>cluster_DatasetModule</title>
<polygon fill="none" stroke="black" stroke-dasharray="1,5" points="8,-70 8,-195 502,-195 502,-70 8,-70"/>
</g>
<g id="clust3" class="cluster">
<title>cluster_DatasetModule_imports</title>
<polygon fill="none" stroke="black" points="396,-78 396,-130 494,-130 494,-78 396,-78"/>
</g>
<g id="clust6" class="cluster">
<title>cluster_DatasetModule_providers</title>
<polygon fill="none" stroke="black" points="16,-78 16,-130 388,-130 388,-78 16,-78"/>
</g>
<!-- FileModule -->
<g id="node1" class="node">
<title>FileModule</title>
<polygon fill="#8dd3c7" stroke="black" points="485.83,-122 482.83,-126 461.83,-126 458.83,-122 404.17,-122 404.17,-86 485.83,-86 485.83,-122"/>
<text text-anchor="middle" x="445" y="-99.8" font-family="Times,serif" font-size="14.00">FileModule</text>
</g>
<!-- DatasetModule -->
<g id="node2" class="node">
<title>DatasetModule</title>
<polygon fill="#8dd3c7" stroke="black" points="330.53,-187 327.53,-191 306.53,-191 303.53,-187 229.47,-187 229.47,-151 330.53,-151 330.53,-187"/>
<text text-anchor="middle" x="280" y="-164.8" font-family="Times,serif" font-size="14.00">DatasetModule</text>
</g>
<!-- FileModule&#45;&gt;DatasetModule -->
<g id="edge1" class="edge">
<title>FileModule&#45;&gt;DatasetModule</title>
<path fill="none" stroke="black" d="M445,-122.11C445,-141.34 445,-169 445,-169 445,-169 340.85,-169 340.85,-169"/>
<polygon fill="black" stroke="black" points="340.85,-165.5 330.85,-169 340.85,-172.5 340.85,-165.5"/>
</g>
<!-- DatasetManageService -->
<g id="node3" class="node">
<title>DatasetManageService</title>
<ellipse fill="#fdb462" stroke="black" cx="280" cy="-104" rx="100.09" ry="18"/>
<text text-anchor="middle" x="280" y="-99.8" font-family="Times,serif" font-size="14.00">DatasetManageService</text>
</g>
<!-- DatasetManageService&#45;&gt;DatasetModule -->
<g id="edge2" class="edge">
<title>DatasetManageService&#45;&gt;DatasetModule</title>
<path fill="none" stroke="black" d="M280,-122.11C280,-122.11 280,-140.99 280,-140.99"/>
<polygon fill="black" stroke="black" points="276.5,-140.99 280,-150.99 283.5,-140.99 276.5,-140.99"/>
</g>
<!-- DatasetService -->
<g id="node4" class="node">
<title>DatasetService</title>
<ellipse fill="#fdb462" stroke="black" cx="93" cy="-104" rx="68.89" ry="18"/>
<text text-anchor="middle" x="93" y="-99.8" font-family="Times,serif" font-size="14.00">DatasetService</text>
</g>
<!-- DatasetService&#45;&gt;DatasetModule -->
<g id="edge3" class="edge">
<title>DatasetService&#45;&gt;DatasetModule</title>
<path fill="none" stroke="black" d="M93,-122.11C93,-141.34 93,-169 93,-169 93,-169 219.4,-169 219.4,-169"/>
<polygon fill="black" stroke="black" points="219.4,-172.5 229.4,-169 219.4,-165.5 219.4,-172.5"/>
</g>
</g>
</svg>
