<?xml version="1.0" encoding="UTF-8" standalone="no"?>
<!DOCTYPE svg PUBLIC "-//W3C//DTD SVG 1.1//EN"
 "http://www.w3.org/Graphics/SVG/1.1/DTD/svg11.dtd">
<!-- Generated by graphviz version 2.47.0 (20210316.0004)
 -->
<!-- Title: dependencies Pages: 1 -->
<svg width="1229pt" height="211pt"
 viewBox="0.00 0.00 1229.00 211.00" xmlns="http://www.w3.org/2000/svg" xmlns:xlink="http://www.w3.org/1999/xlink">
<g id="graph0" class="graph" transform="scale(1 1) rotate(0) translate(4 207)">
<title>dependencies</title>
<polygon fill="white" stroke="transparent" points="-4,4 -4,-207 1225,-207 1225,4 -4,4"/>
<text text-anchor="start" x="589.51" y="-42.4" font-family="Times-12" font-weight="bold" font-size="14.00">Legend</text>
<polygon fill="#ffffb3" stroke="transparent" points="376.5,-10 376.5,-30 396.5,-30 396.5,-10 376.5,-10"/>
<text text-anchor="start" x="400.13" y="-15.4" font-family="Times-12" font-size="14.00"> &#160;Declarations</text>
<polygon fill="#8dd3c7" stroke="transparent" points="489.5,-10 489.5,-30 509.5,-30 509.5,-10 489.5,-10"/>
<text text-anchor="start" x="513.23" y="-15.4" font-family="Times-12" font-size="14.00"> &#160;Module</text>
<polygon fill="#80b1d3" stroke="transparent" points="575.5,-10 575.5,-30 595.5,-30 595.5,-10 575.5,-10"/>
<text text-anchor="start" x="599.28" y="-15.4" font-family="Times-12" font-size="14.00"> &#160;Bootstrap</text>
<polygon fill="#fdb462" stroke="transparent" points="672.5,-10 672.5,-30 692.5,-30 692.5,-10 672.5,-10"/>
<text text-anchor="start" x="696.17" y="-15.4" font-family="Times-12" font-size="14.00"> &#160;Providers</text>
<polygon fill="#fb8072" stroke="transparent" points="768.5,-10 768.5,-30 788.5,-30 788.5,-10 768.5,-10"/>
<text text-anchor="start" x="792.23" y="-15.4" font-family="Times-12" font-size="14.00"> &#160;Exports</text>
<g id="clust1" class="cluster">
<title>cluster_AppModule</title>
<polygon fill="none" stroke="black" stroke-dasharray="1,5" points="8,-70 8,-195 1213,-195 1213,-70 8,-70"/>
</g>
<g id="clust3" class="cluster">
<title>cluster_AppModule_imports</title>
<polygon fill="none" stroke="black" points="154,-78 154,-130 1205,-130 1205,-78 154,-78"/>
</g>
<g id="clust6" class="cluster">
<title>cluster_AppModule_providers</title>
<polygon fill="none" stroke="black" points="16,-78 16,-130 146,-130 146,-78 16,-78"/>
</g>
<!-- AiServiceModule -->
<g id="node1" class="node">
<title>AiServiceModule</title>
<polygon fill="#8dd3c7" stroke="black" points="1196.53,-122 1193.53,-126 1172.53,-126 1169.53,-122 1081.47,-122 1081.47,-86 1196.53,-86 1196.53,-122"/>
<text text-anchor="middle" x="1139" y="-99.8" font-family="Times,serif" font-size="14.00">AiServiceModule</text>
</g>
<!-- AppModule -->
<g id="node10" class="node">
<title>AppModule</title>
<polygon fill="#8dd3c7" stroke="black" points="643.66,-187 640.66,-191 619.66,-191 616.66,-187 560.34,-187 560.34,-151 643.66,-151 643.66,-187"/>
<text text-anchor="middle" x="602" y="-164.8" font-family="Times,serif" font-size="14.00">AppModule</text>
</g>
<!-- AiServiceModule&#45;&gt;AppModule -->
<g id="edge1" class="edge">
<title>AiServiceModule&#45;&gt;AppModule</title>
<path fill="none" stroke="black" d="M1139,-122.01C1139,-144.49 1139,-180 1139,-180 1139,-180 653.69,-180 653.69,-180"/>
<polygon fill="black" stroke="black" points="653.69,-176.5 643.69,-180 653.69,-183.5 653.69,-176.5"/>
</g>
<!-- AuthModule -->
<g id="node2" class="node">
<title>AuthModule</title>
<polygon fill="#8dd3c7" stroke="black" points="1062.55,-122 1059.55,-126 1038.55,-126 1035.55,-122 975.45,-122 975.45,-86 1062.55,-86 1062.55,-122"/>
<text text-anchor="middle" x="1019" y="-99.8" font-family="Times,serif" font-size="14.00">AuthModule</text>
</g>
<!-- AuthModule&#45;&gt;AppModule -->
<g id="edge2" class="edge">
<title>AuthModule&#45;&gt;AppModule</title>
<path fill="none" stroke="black" d="M1019,-122.13C1019,-142.57 1019,-173 1019,-173 1019,-173 653.89,-173 653.89,-173"/>
<polygon fill="black" stroke="black" points="653.89,-169.5 643.89,-173 653.89,-176.5 653.89,-169.5"/>
</g>
<!-- DatasetModule -->
<g id="node3" class="node">
<title>DatasetModule</title>
<polygon fill="#8dd3c7" stroke="black" points="956.53,-122 953.53,-126 932.53,-126 929.53,-122 855.47,-122 855.47,-86 956.53,-86 956.53,-122"/>
<text text-anchor="middle" x="906" y="-99.8" font-family="Times,serif" font-size="14.00">DatasetModule</text>
</g>
<!-- DatasetModule&#45;&gt;AppModule -->
<g id="edge3" class="edge">
<title>DatasetModule&#45;&gt;AppModule</title>
<path fill="none" stroke="black" d="M906,-122.27C906,-140.56 906,-166 906,-166 906,-166 653.95,-166 653.95,-166"/>
<polygon fill="black" stroke="black" points="653.95,-162.5 643.95,-166 653.95,-169.5 653.95,-162.5"/>
</g>
<!-- DiagnosisModule -->
<g id="node4" class="node">
<title>DiagnosisModule</title>
<polygon fill="#8dd3c7" stroke="black" points="836.54,-122 833.54,-126 812.54,-126 809.54,-122 721.46,-122 721.46,-86 836.54,-86 836.54,-122"/>
<text text-anchor="middle" x="779" y="-99.8" font-family="Times,serif" font-size="14.00">DiagnosisModule</text>
</g>
<!-- DiagnosisModule&#45;&gt;AppModule -->
<g id="edge4" class="edge">
<title>DiagnosisModule&#45;&gt;AppModule</title>
<path fill="none" stroke="black" d="M779,-122.01C779,-138.05 779,-159 779,-159 779,-159 653.95,-159 653.95,-159"/>
<polygon fill="black" stroke="black" points="653.95,-155.5 643.95,-159 653.95,-162.5 653.95,-155.5"/>
</g>
<!-- FileModule -->
<g id="node5" class="node">
<title>FileModule</title>
<polygon fill="#8dd3c7" stroke="black" points="703.83,-122 700.83,-126 679.83,-126 676.83,-122 622.17,-122 622.17,-86 703.83,-86 703.83,-122"/>
<text text-anchor="middle" x="663" y="-99.8" font-family="Times,serif" font-size="14.00">FileModule</text>
</g>
<!-- FileModule&#45;&gt;AppModule -->
<g id="edge5" class="edge">
<title>FileModule&#45;&gt;AppModule</title>
<path fill="none" stroke="black" d="M633.08,-122.11C633.08,-122.11 633.08,-140.99 633.08,-140.99"/>
<polygon fill="black" stroke="black" points="629.58,-140.99 633.08,-150.99 636.58,-140.99 629.58,-140.99"/>
</g>
<!-- KnowledgeModule -->
<g id="node6" class="node">
<title>KnowledgeModule</title>
<polygon fill="#8dd3c7" stroke="black" points="604.08,-122 601.08,-126 580.08,-126 577.08,-122 479.92,-122 479.92,-86 604.08,-86 604.08,-122"/>
<text text-anchor="middle" x="542" y="-99.8" font-family="Times,serif" font-size="14.00">KnowledgeModule</text>
</g>
<!-- KnowledgeModule&#45;&gt;AppModule -->
<g id="edge6" class="edge">
<title>KnowledgeModule&#45;&gt;AppModule</title>
<path fill="none" stroke="black" d="M582.11,-122.11C582.11,-122.11 582.11,-140.99 582.11,-140.99"/>
<polygon fill="black" stroke="black" points="578.61,-140.99 582.11,-150.99 585.61,-140.99 578.61,-140.99"/>
</g>
<!-- MenuModule -->
<g id="node7" class="node">
<title>MenuModule</title>
<polygon fill="#8dd3c7" stroke="black" points="462.21,-122 459.21,-126 438.21,-126 435.21,-122 369.79,-122 369.79,-86 462.21,-86 462.21,-122"/>
<text text-anchor="middle" x="416" y="-99.8" font-family="Times,serif" font-size="14.00">MenuModule</text>
</g>
<!-- MenuModule&#45;&gt;AppModule -->
<g id="edge7" class="edge">
<title>MenuModule&#45;&gt;AppModule</title>
<path fill="none" stroke="black" d="M416,-122.01C416,-138.05 416,-159 416,-159 416,-159 550.26,-159 550.26,-159"/>
<polygon fill="black" stroke="black" points="550.26,-162.5 560.26,-159 550.26,-155.5 550.26,-162.5"/>
</g>
<!-- RoleModule -->
<g id="node8" class="node">
<title>RoleModule</title>
<polygon fill="#8dd3c7" stroke="black" points="351.99,-122 348.99,-126 327.99,-126 324.99,-122 266.01,-122 266.01,-86 351.99,-86 351.99,-122"/>
<text text-anchor="middle" x="309" y="-99.8" font-family="Times,serif" font-size="14.00">RoleModule</text>
</g>
<!-- RoleModule&#45;&gt;AppModule -->
<g id="edge8" class="edge">
<title>RoleModule&#45;&gt;AppModule</title>
<path fill="none" stroke="black" d="M309,-122.27C309,-140.56 309,-166 309,-166 309,-166 550.33,-166 550.33,-166"/>
<polygon fill="black" stroke="black" points="550.33,-169.5 560.33,-166 550.33,-162.5 550.33,-169.5"/>
</g>
<!-- UserModule -->
<g id="node9" class="node">
<title>UserModule</title>
<polygon fill="#8dd3c7" stroke="black" points="247.98,-122 244.98,-126 223.98,-126 220.98,-122 162.02,-122 162.02,-86 247.98,-86 247.98,-122"/>
<text text-anchor="middle" x="205" y="-99.8" font-family="Times,serif" font-size="14.00">UserModule</text>
</g>
<!-- UserModule&#45;&gt;AppModule -->
<g id="edge9" class="edge">
<title>UserModule&#45;&gt;AppModule</title>
<path fill="none" stroke="black" d="M205,-122.13C205,-142.57 205,-173 205,-173 205,-173 550.26,-173 550.26,-173"/>
<polygon fill="black" stroke="black" points="550.26,-176.5 560.26,-173 550.26,-169.5 550.26,-176.5"/>
</g>
<!-- AppService -->
<g id="node11" class="node">
<title>AppService</title>
<ellipse fill="#fdb462" stroke="black" cx="81" cy="-104" rx="56.74" ry="18"/>
<text text-anchor="middle" x="81" y="-99.8" font-family="Times,serif" font-size="14.00">AppService</text>
</g>
<!-- AppService&#45;&gt;AppModule -->
<g id="edge10" class="edge">
<title>AppService&#45;&gt;AppModule</title>
<path fill="none" stroke="black" d="M81,-122.01C81,-144.49 81,-180 81,-180 81,-180 550.25,-180 550.25,-180"/>
<polygon fill="black" stroke="black" points="550.25,-183.5 560.25,-180 550.25,-176.5 550.25,-183.5"/>
</g>
</g>
</svg>
