<?xml version="1.0" encoding="UTF-8" standalone="no"?>
<!DOCTYPE svg PUBLIC "-//W3C//DTD SVG 1.1//EN"
 "http://www.w3.org/Graphics/SVG/1.1/DTD/svg11.dtd">
<!-- Generated by graphviz version 2.47.0 (20210316.0004)
 -->
<!-- Title: dependencies Pages: 1 -->
<svg width="1142pt" height="284pt"
 viewBox="0.00 0.00 1142.00 284.00" xmlns="http://www.w3.org/2000/svg" xmlns:xlink="http://www.w3.org/1999/xlink">
<g id="graph0" class="graph" transform="scale(1 1) rotate(0) translate(4 280)">
<title>dependencies</title>
<polygon fill="white" stroke="transparent" points="-4,4 -4,-280 1138,-280 1138,4 -4,4"/>
<text text-anchor="start" x="546.01" y="-42.4" font-family="Times-12" font-weight="bold" font-size="14.00">Legend</text>
<polygon fill="#ffffb3" stroke="transparent" points="333,-10 333,-30 353,-30 353,-10 333,-10"/>
<text text-anchor="start" x="356.63" y="-15.4" font-family="Times-12" font-size="14.00"> &#160;Declarations</text>
<polygon fill="#8dd3c7" stroke="transparent" points="446,-10 446,-30 466,-30 466,-10 446,-10"/>
<text text-anchor="start" x="469.73" y="-15.4" font-family="Times-12" font-size="14.00"> &#160;Module</text>
<polygon fill="#80b1d3" stroke="transparent" points="532,-10 532,-30 552,-30 552,-10 532,-10"/>
<text text-anchor="start" x="555.78" y="-15.4" font-family="Times-12" font-size="14.00"> &#160;Bootstrap</text>
<polygon fill="#fdb462" stroke="transparent" points="629,-10 629,-30 649,-30 649,-10 629,-10"/>
<text text-anchor="start" x="652.67" y="-15.4" font-family="Times-12" font-size="14.00"> &#160;Providers</text>
<polygon fill="#fb8072" stroke="transparent" points="725,-10 725,-30 745,-30 745,-10 725,-10"/>
<text text-anchor="start" x="748.73" y="-15.4" font-family="Times-12" font-size="14.00"> &#160;Exports</text>
<g id="clust1" class="cluster">
<title>cluster_FileModule</title>
<polygon fill="none" stroke="black" stroke-dasharray="1,5" points="8,-70 8,-268 1126,-268 1126,-70 8,-70"/>
</g>
<g id="clust6" class="cluster">
<title>cluster_FileModule_providers</title>
<polygon fill="none" stroke="black" points="16,-78 16,-130 1118,-130 1118,-78 16,-78"/>
</g>
<g id="clust4" class="cluster">
<title>cluster_FileModule_exports</title>
<polygon fill="none" stroke="black" points="355,-208 355,-260 758,-260 758,-208 355,-208"/>
</g>
<!-- FileManageService  -->
<g id="node1" class="node">
<title>FileManageService </title>
<polygon fill="#fb8072" stroke="black" points="750.34,-252 621.66,-252 621.66,-216 750.34,-216 750.34,-252"/>
<text text-anchor="middle" x="686" y="-229.8" font-family="Times,serif" font-size="14.00">FileManageService </text>
</g>
<!-- FileOperationService  -->
<g id="node2" class="node">
<title>FileOperationService </title>
<polygon fill="#fb8072" stroke="black" points="603.73,-252 464.27,-252 464.27,-216 603.73,-216 603.73,-252"/>
<text text-anchor="middle" x="534" y="-229.8" font-family="Times,serif" font-size="14.00">FileOperationService </text>
</g>
<!-- FileService  -->
<g id="node3" class="node">
<title>FileService </title>
<polygon fill="#fb8072" stroke="black" points="446.76,-252 363.24,-252 363.24,-216 446.76,-216 446.76,-252"/>
<text text-anchor="middle" x="405" y="-229.8" font-family="Times,serif" font-size="14.00">FileService </text>
</g>
<!-- FileModule -->
<g id="node4" class="node">
<title>FileModule</title>
<polygon fill="#8dd3c7" stroke="black" points="574.83,-187 571.83,-191 550.83,-191 547.83,-187 493.17,-187 493.17,-151 574.83,-151 574.83,-187"/>
<text text-anchor="middle" x="534" y="-164.8" font-family="Times,serif" font-size="14.00">FileModule</text>
</g>
<!-- FileModule&#45;&gt;FileManageService  -->
<g id="edge1" class="edge">
<title>FileModule&#45;&gt;FileManageService </title>
<path fill="none" stroke="black" stroke-dasharray="5,2" d="M574.91,-178C613.9,-178 666.73,-178 666.73,-178 666.73,-178 666.73,-205.97 666.73,-205.97"/>
<polygon fill="black" stroke="black" points="663.23,-205.97 666.73,-215.97 670.23,-205.97 663.23,-205.97"/>
</g>
<!-- FileModule&#45;&gt;FileOperationService  -->
<g id="edge2" class="edge">
<title>FileModule&#45;&gt;FileOperationService </title>
<path fill="none" stroke="black" stroke-dasharray="5,2" d="M534,-187.11C534,-187.11 534,-205.99 534,-205.99"/>
<polygon fill="black" stroke="black" points="530.5,-205.99 534,-215.99 537.5,-205.99 530.5,-205.99"/>
</g>
<!-- FileModule&#45;&gt;FileService  -->
<g id="edge3" class="edge">
<title>FileModule&#45;&gt;FileService </title>
<path fill="none" stroke="black" stroke-dasharray="5,2" d="M493.32,-178C461.04,-178 421.31,-178 421.31,-178 421.31,-178 421.31,-205.97 421.31,-205.97"/>
<polygon fill="black" stroke="black" points="417.81,-205.97 421.31,-215.97 424.81,-205.97 417.81,-205.97"/>
</g>
<!-- FileDownloadService -->
<g id="node5" class="node">
<title>FileDownloadService</title>
<ellipse fill="#fdb462" stroke="black" cx="1015" cy="-104" rx="95.48" ry="18"/>
<text text-anchor="middle" x="1015" y="-99.8" font-family="Times,serif" font-size="14.00">FileDownloadService</text>
</g>
<!-- FileDownloadService&#45;&gt;FileModule -->
<g id="edge4" class="edge">
<title>FileDownloadService&#45;&gt;FileModule</title>
<path fill="none" stroke="black" d="M1015,-122.11C1015,-141.34 1015,-169 1015,-169 1015,-169 585.01,-169 585.01,-169"/>
<polygon fill="black" stroke="black" points="585.01,-165.5 575.01,-169 585.01,-172.5 585.01,-165.5"/>
</g>
<!-- FileManageService -->
<g id="node6" class="node">
<title>FileManageService</title>
<ellipse fill="#fdb462" stroke="black" cx="816" cy="-104" rx="86.23" ry="18"/>
<text text-anchor="middle" x="816" y="-99.8" font-family="Times,serif" font-size="14.00">FileManageService</text>
</g>
<!-- FileManageService&#45;&gt;FileModule -->
<g id="edge5" class="edge">
<title>FileManageService&#45;&gt;FileModule</title>
<path fill="none" stroke="black" d="M740.03,-112.75C740.03,-128.5 740.03,-160 740.03,-160 740.03,-160 584.7,-160 584.7,-160"/>
<polygon fill="black" stroke="black" points="584.7,-156.5 574.7,-160 584.7,-163.5 584.7,-156.5"/>
</g>
<!-- FileOperationService -->
<g id="node7" class="node">
<title>FileOperationService</title>
<ellipse fill="#fdb462" stroke="black" cx="618" cy="-104" rx="93.75" ry="18"/>
<text text-anchor="middle" x="618" y="-99.8" font-family="Times,serif" font-size="14.00">FileOperationService</text>
</g>
<!-- FileOperationService&#45;&gt;FileModule -->
<g id="edge6" class="edge">
<title>FileOperationService&#45;&gt;FileModule</title>
<path fill="none" stroke="black" d="M549.52,-116.53C549.52,-116.53 549.52,-140.85 549.52,-140.85"/>
<polygon fill="black" stroke="black" points="546.02,-140.85 549.52,-150.85 553.02,-140.85 546.02,-140.85"/>
</g>
<!-- FileService -->
<g id="node8" class="node">
<title>FileService</title>
<ellipse fill="#fdb462" stroke="black" cx="451" cy="-104" rx="55.03" ry="18"/>
<text text-anchor="middle" x="451" y="-99.8" font-family="Times,serif" font-size="14.00">FileService</text>
</g>
<!-- FileService&#45;&gt;FileModule -->
<g id="edge7" class="edge">
<title>FileService&#45;&gt;FileModule</title>
<path fill="none" stroke="black" d="M499.68,-112.5C499.68,-112.5 499.68,-140.91 499.68,-140.91"/>
<polygon fill="black" stroke="black" points="496.18,-140.91 499.68,-150.91 503.18,-140.91 496.18,-140.91"/>
</g>
<!-- FileStorageService -->
<g id="node9" class="node">
<title>FileStorageService</title>
<ellipse fill="#fdb462" stroke="black" cx="293" cy="-104" rx="84.52" ry="18"/>
<text text-anchor="middle" x="293" y="-99.8" font-family="Times,serif" font-size="14.00">FileStorageService</text>
</g>
<!-- FileStorageService&#45;&gt;FileModule -->
<g id="edge8" class="edge">
<title>FileStorageService&#45;&gt;FileModule</title>
<path fill="none" stroke="black" d="M370.44,-111.32C370.44,-126.5 370.44,-160 370.44,-160 370.44,-160 483.15,-160 483.15,-160"/>
<polygon fill="black" stroke="black" points="483.15,-163.5 493.15,-160 483.15,-156.5 483.15,-163.5"/>
</g>
<!-- FileUploadService -->
<g id="node10" class="node">
<title>FileUploadService</title>
<ellipse fill="#fdb462" stroke="black" cx="107" cy="-104" rx="83.38" ry="18"/>
<text text-anchor="middle" x="107" y="-99.8" font-family="Times,serif" font-size="14.00">FileUploadService</text>
</g>
<!-- FileUploadService&#45;&gt;FileModule -->
<g id="edge9" class="edge">
<title>FileUploadService&#45;&gt;FileModule</title>
<path fill="none" stroke="black" d="M107,-122.11C107,-141.34 107,-169 107,-169 107,-169 483.06,-169 483.06,-169"/>
<polygon fill="black" stroke="black" points="483.06,-172.5 493.06,-169 483.06,-165.5 483.06,-172.5"/>
</g>
</g>
</svg>
