<?xml version="1.0" encoding="UTF-8" standalone="no"?>
<!DOCTYPE svg PUBLIC "-//W3C//DTD SVG 1.1//EN"
 "http://www.w3.org/Graphics/SVG/1.1/DTD/svg11.dtd">
<!-- Generated by graphviz version 2.47.0 (20210316.0004)
 -->
<!-- Title: dependencies Pages: 1 -->
<svg width="504pt" height="211pt"
 viewBox="0.00 0.00 504.00 211.00" xmlns="http://www.w3.org/2000/svg" xmlns:xlink="http://www.w3.org/1999/xlink">
<g id="graph0" class="graph" transform="scale(1 1) rotate(0) translate(4 207)">
<title>dependencies</title>
<polygon fill="white" stroke="transparent" points="-4,4 -4,-207 500,-207 500,4 -4,4"/>
<text text-anchor="start" x="227.01" y="-42.4" font-family="Times-12" font-weight="bold" font-size="14.00">Legend</text>
<polygon fill="#ffffb3" stroke="transparent" points="14,-10 14,-30 34,-30 34,-10 14,-10"/>
<text text-anchor="start" x="37.63" y="-15.4" font-family="Times-12" font-size="14.00"> &#160;Declarations</text>
<polygon fill="#8dd3c7" stroke="transparent" points="127,-10 127,-30 147,-30 147,-10 127,-10"/>
<text text-anchor="start" x="150.73" y="-15.4" font-family="Times-12" font-size="14.00"> &#160;Module</text>
<polygon fill="#80b1d3" stroke="transparent" points="213,-10 213,-30 233,-30 233,-10 213,-10"/>
<text text-anchor="start" x="236.78" y="-15.4" font-family="Times-12" font-size="14.00"> &#160;Bootstrap</text>
<polygon fill="#fdb462" stroke="transparent" points="310,-10 310,-30 330,-30 330,-10 310,-10"/>
<text text-anchor="start" x="333.67" y="-15.4" font-family="Times-12" font-size="14.00"> &#160;Providers</text>
<polygon fill="#fb8072" stroke="transparent" points="406,-10 406,-30 426,-30 426,-10 406,-10"/>
<text text-anchor="start" x="429.73" y="-15.4" font-family="Times-12" font-size="14.00"> &#160;Exports</text>
<g id="clust1" class="cluster">
<title>cluster_DiagnosisModule</title>
<polygon fill="none" stroke="black" stroke-dasharray="1,5" points="100,-70 100,-195 396,-195 396,-70 100,-70"/>
</g>
<g id="clust6" class="cluster">
<title>cluster_DiagnosisModule_providers</title>
<polygon fill="none" stroke="black" points="214,-78 214,-130 388,-130 388,-78 214,-78"/>
</g>
<g id="clust3" class="cluster">
<title>cluster_DiagnosisModule_imports</title>
<polygon fill="none" stroke="black" points="108,-78 108,-130 206,-130 206,-78 108,-78"/>
</g>
<!-- FileModule -->
<g id="node1" class="node">
<title>FileModule</title>
<polygon fill="#8dd3c7" stroke="black" points="197.83,-122 194.83,-126 173.83,-126 170.83,-122 116.17,-122 116.17,-86 197.83,-86 197.83,-122"/>
<text text-anchor="middle" x="157" y="-99.8" font-family="Times,serif" font-size="14.00">FileModule</text>
</g>
<!-- DiagnosisModule -->
<g id="node2" class="node">
<title>DiagnosisModule</title>
<polygon fill="#8dd3c7" stroke="black" points="290.54,-187 287.54,-191 266.54,-191 263.54,-187 175.46,-187 175.46,-151 290.54,-151 290.54,-187"/>
<text text-anchor="middle" x="233" y="-164.8" font-family="Times,serif" font-size="14.00">DiagnosisModule</text>
</g>
<!-- FileModule&#45;&gt;DiagnosisModule -->
<g id="edge1" class="edge">
<title>FileModule&#45;&gt;DiagnosisModule</title>
<path fill="none" stroke="black" d="M186.45,-122.11C186.45,-122.11 186.45,-140.99 186.45,-140.99"/>
<polygon fill="black" stroke="black" points="182.95,-140.99 186.45,-150.99 189.95,-140.99 182.95,-140.99"/>
</g>
<!-- DiagnosisService -->
<g id="node3" class="node">
<title>DiagnosisService</title>
<ellipse fill="#fdb462" stroke="black" cx="301" cy="-104" rx="78.73" ry="18"/>
<text text-anchor="middle" x="301" y="-99.8" font-family="Times,serif" font-size="14.00">DiagnosisService</text>
</g>
<!-- DiagnosisService&#45;&gt;DiagnosisModule -->
<g id="edge2" class="edge">
<title>DiagnosisService&#45;&gt;DiagnosisModule</title>
<path fill="none" stroke="black" d="M256.58,-119.08C256.58,-119.08 256.58,-140.76 256.58,-140.76"/>
<polygon fill="black" stroke="black" points="253.08,-140.76 256.58,-150.76 260.08,-140.76 253.08,-140.76"/>
</g>
</g>
</svg>
